<mxfile host="app.diagrams.net" modified="2021-07-16T06:30:20.856Z" agent="5.0 (Windows NT 10.0; Win64; x64) AppleWebKit/537.36 (KHTML, like Gecko) Chrome/91.0.4472.124 Safari/537.36" etag="YFo5hT1mpXowsSxnKdRB" version="14.8.6" type="github" pages="4">
  <diagram id="OiAdG7TxA3gKg6y4t-il" name="01. /services/api/rest/ImportForQuote">
    <mxGraphModel dx="1022" dy="1271" grid="1" gridSize="10" guides="1" tooltips="1" connect="1" arrows="1" fold="1" page="1" pageScale="1" pageWidth="1100" pageHeight="850" math="0" shadow="0">
      <root>
        <mxCell id="0" />
        <mxCell id="1" parent="0" />
        <mxCell id="HQiu4LjJbaCrbUbcNdbU-1" value="POSTÂ {{host}}/services/api/rest/GetDocuments" style="swimlane;fontStyle=1;childLayout=stackLayout;horizontal=1;startSize=26;horizontalStack=0;resizeParent=1;resizeParentMax=0;resizeLast=0;collapsible=1;marginBottom=0;fontColor=#FF0080;" parent="1" vertex="1">
          <mxGeometry x="10" y="-380" width="520" height="118" as="geometry" />
        </mxCell>
        <mxCell id="HQiu4LjJbaCrbUbcNdbU-2" value="To fetch different types of documents for a given shipment." style="text;strokeColor=#6c8ebf;fillColor=#dae8fc;align=left;verticalAlign=top;spacingLeft=4;spacingRight=4;overflow=hidden;rotatable=0;points=[[0,0.5],[1,0.5]];portConstraint=eastwest;" parent="HQiu4LjJbaCrbUbcNdbU-1" vertex="1">
          <mxGeometry y="26" width="520" height="26" as="geometry" />
        </mxCell>
        <mxCell id="HQiu4LjJbaCrbUbcNdbU-3" value="Documents are returned in Base 64 format." style="text;strokeColor=#82b366;fillColor=#d5e8d4;align=left;verticalAlign=top;spacingLeft=4;spacingRight=4;overflow=hidden;rotatable=0;points=[[0,0.5],[1,0.5]];portConstraint=eastwest;" parent="HQiu4LjJbaCrbUbcNdbU-1" vertex="1">
          <mxGeometry y="52" width="520" height="26" as="geometry" />
        </mxCell>
        <mxCell id="HQiu4LjJbaCrbUbcNdbU-4" value="Certain documents such as AR, AP require special permissions." style="text;strokeColor=#9673a6;fillColor=#e1d5e7;align=left;verticalAlign=top;spacingLeft=4;spacingRight=4;overflow=hidden;rotatable=0;points=[[0,0.5],[1,0.5]];portConstraint=eastwest;whiteSpace=wrap;" parent="HQiu4LjJbaCrbUbcNdbU-1" vertex="1">
          <mxGeometry y="78" width="520" height="40" as="geometry" />
        </mxCell>
        <mxCell id="HQiu4LjJbaCrbUbcNdbU-5" style="edgeStyle=orthogonalEdgeStyle;rounded=0;orthogonalLoop=1;jettySize=auto;html=1;" parent="1" source="HQiu4LjJbaCrbUbcNdbU-20" edge="1">
          <mxGeometry relative="1" as="geometry">
            <Array as="points">
              <mxPoint x="320" y="-190" />
              <mxPoint x="320" y="-165" />
            </Array>
            <mxPoint x="550" y="-165" as="targetPoint" />
          </mxGeometry>
        </mxCell>
        <mxCell id="HQiu4LjJbaCrbUbcNdbU-6" value="LoadID, DocumentTypeList" style="text;html=1;strokeColor=none;fillColor=none;align=center;verticalAlign=middle;whiteSpace=wrap;rounded=0;fontColor=#FF0080;" parent="1" vertex="1">
          <mxGeometry x="290" y="-180" width="240" height="20" as="geometry" />
        </mxCell>
        <mxCell id="HQiu4LjJbaCrbUbcNdbU-7" value="Banyan" style="swimlane;startSize=23;fillColor=#dae8fc;strokeColor=#6c8ebf;labelBackgroundColor=none;" parent="1" vertex="1">
          <mxGeometry x="520" y="-210" width="390" height="160" as="geometry" />
        </mxCell>
        <mxCell id="HQiu4LjJbaCrbUbcNdbU-8" style="edgeStyle=orthogonalEdgeStyle;rounded=0;orthogonalLoop=1;jettySize=auto;html=1;entryX=0.5;entryY=0;entryDx=0;entryDy=0;" parent="HQiu4LjJbaCrbUbcNdbU-7" target="HQiu4LjJbaCrbUbcNdbU-10" edge="1">
          <mxGeometry relative="1" as="geometry">
            <mxPoint x="140" y="70" as="sourcePoint" />
          </mxGeometry>
        </mxCell>
        <mxCell id="HQiu4LjJbaCrbUbcNdbU-10" value="Collect and Return" style="rounded=0;whiteSpace=wrap;html=1;fillColor=#dae8fc;strokeColor=#6c8ebf;" parent="HQiu4LjJbaCrbUbcNdbU-7" vertex="1">
          <mxGeometry x="30" y="120" width="320" height="30" as="geometry" />
        </mxCell>
        <mxCell id="HQiu4LjJbaCrbUbcNdbU-12" value="Check Permissions for Certain Documents Request" style="rounded=0;whiteSpace=wrap;html=1;fillColor=#dae8fc;strokeColor=#6c8ebf;" parent="HQiu4LjJbaCrbUbcNdbU-7" vertex="1">
          <mxGeometry x="30" y="40" width="320" height="30" as="geometry" />
        </mxCell>
        <mxCell id="HQiu4LjJbaCrbUbcNdbU-14" value="LoadID, DocumentsList" style="text;html=1;strokeColor=none;fillColor=none;align=center;verticalAlign=middle;whiteSpace=wrap;rounded=0;fontColor=#FF0080;" parent="1" vertex="1">
          <mxGeometry x="330" y="-90" width="180" height="20" as="geometry" />
        </mxCell>
        <mxCell id="HQiu4LjJbaCrbUbcNdbU-16" value="LoadID" style="swimlane;fontStyle=1;childLayout=stackLayout;horizontal=1;startSize=26;horizontalStack=0;resizeParent=1;resizeParentMax=0;resizeLast=0;collapsible=1;marginBottom=0;fontSize=15;align=center;fillColor=#f8cecc;strokeColor=#b85450;" parent="1" vertex="1">
          <mxGeometry x="10" y="-40" width="750" height="52" as="geometry" />
        </mxCell>
        <mxCell id="HQiu4LjJbaCrbUbcNdbU-17" value="Documents can be requested in form of images, PDF etc." style="text;strokeColor=#9673a6;fillColor=#e1d5e7;align=left;verticalAlign=top;spacingLeft=4;spacingRight=4;overflow=hidden;rotatable=0;points=[[0,0.5],[1,0.5]];portConstraint=eastwest;" parent="HQiu4LjJbaCrbUbcNdbU-16" vertex="1">
          <mxGeometry y="26" width="750" height="26" as="geometry" />
        </mxCell>
        <mxCell id="HQiu4LjJbaCrbUbcNdbU-19" value="Turvo" style="swimlane;align=center;fillColor=#d5e8d4;strokeColor=#82b366;" parent="1" vertex="1">
          <mxGeometry x="10" y="-220" width="230" height="160" as="geometry" />
        </mxCell>
        <mxCell id="HQiu4LjJbaCrbUbcNdbU-20" value="Shipment" style="rounded=0;whiteSpace=wrap;html=1;fillColor=#d5e8d4;strokeColor=#82b366;" parent="HQiu4LjJbaCrbUbcNdbU-19" vertex="1">
          <mxGeometry x="10" y="60" width="190" height="60" as="geometry" />
        </mxCell>
        <mxCell id="BDgtVawXJDCxdT6Yhd9P-1" value="" style="endArrow=classic;html=1;exitX=0;exitY=0.5;exitDx=0;exitDy=0;entryX=1;entryY=0.75;entryDx=0;entryDy=0;" edge="1" parent="1" source="HQiu4LjJbaCrbUbcNdbU-10" target="HQiu4LjJbaCrbUbcNdbU-20">
          <mxGeometry width="50" height="50" relative="1" as="geometry">
            <mxPoint x="500" y="-150" as="sourcePoint" />
            <mxPoint x="550" y="-200" as="targetPoint" />
            <Array as="points">
              <mxPoint x="340" y="-75" />
            </Array>
          </mxGeometry>
        </mxCell>
      </root>
    </mxGraphModel>
  </diagram>
  <diagram name="02 /services/api/rest/GetQuotes" id="FWxIg1FBerBXyO7mredP">
    <mxGraphModel dx="1022" dy="444" grid="1" gridSize="10" guides="1" tooltips="1" connect="1" arrows="1" fold="1" page="1" pageScale="1" pageWidth="1100" pageHeight="850" math="0" shadow="0">
      <root>
        <mxCell id="3qYp3PzX7lrmJIjdqvdg-0" />
        <mxCell id="3qYp3PzX7lrmJIjdqvdg-1" parent="3qYp3PzX7lrmJIjdqvdg-0" />
        <mxCell id="3qYp3PzX7lrmJIjdqvdg-2" value="{{host}}/services/api/rest/GetQuotes" style="swimlane;fontStyle=1;childLayout=stackLayout;horizontal=1;startSize=26;horizontalStack=0;resizeParent=1;resizeParentMax=0;resizeLast=0;collapsible=1;marginBottom=0;fontColor=#FF0080;" parent="3qYp3PzX7lrmJIjdqvdg-1" vertex="1">
          <mxGeometry width="520" height="52" as="geometry" />
        </mxCell>
        <mxCell id="3qYp3PzX7lrmJIjdqvdg-3" value="This function will retrieve all the valid quotes for a given shipment." style="text;strokeColor=#6c8ebf;fillColor=#dae8fc;align=left;verticalAlign=top;spacingLeft=4;spacingRight=4;overflow=hidden;rotatable=0;points=[[0,0.5],[1,0.5]];portConstraint=eastwest;" parent="3qYp3PzX7lrmJIjdqvdg-2" vertex="1">
          <mxGeometry y="26" width="520" height="26" as="geometry" />
        </mxCell>
        <mxCell id="3qYp3PzX7lrmJIjdqvdg-6" style="edgeStyle=orthogonalEdgeStyle;rounded=0;orthogonalLoop=1;jettySize=auto;html=1;" parent="3qYp3PzX7lrmJIjdqvdg-1" source="3qYp3PzX7lrmJIjdqvdg-7" edge="1">
          <mxGeometry relative="1" as="geometry">
            <Array as="points">
              <mxPoint x="320" y="230" />
              <mxPoint x="320" y="255" />
            </Array>
            <mxPoint x="400" y="255" as="targetPoint" />
          </mxGeometry>
        </mxCell>
        <mxCell id="3qYp3PzX7lrmJIjdqvdg-7" value="Shipment" style="rounded=0;whiteSpace=wrap;html=1;fillColor=#d5e8d4;strokeColor=#82b366;" parent="3qYp3PzX7lrmJIjdqvdg-1" vertex="1">
          <mxGeometry x="10" y="200" width="230" height="60" as="geometry" />
        </mxCell>
        <mxCell id="3qYp3PzX7lrmJIjdqvdg-8" value="Turvo" style="text;html=1;align=center;verticalAlign=middle;resizable=0;points=[];autosize=1;strokeColor=none;fontColor=#FF0080;" parent="3qYp3PzX7lrmJIjdqvdg-1" vertex="1">
          <mxGeometry x="100" y="180" width="50" height="20" as="geometry" />
        </mxCell>
        <mxCell id="3qYp3PzX7lrmJIjdqvdg-9" value="1 LoadID" style="text;html=1;strokeColor=none;fillColor=none;align=center;verticalAlign=middle;whiteSpace=wrap;rounded=0;fontColor=#FF0080;" parent="3qYp3PzX7lrmJIjdqvdg-1" vertex="1">
          <mxGeometry x="240" y="210" width="130" height="20" as="geometry" />
        </mxCell>
        <mxCell id="3qYp3PzX7lrmJIjdqvdg-10" value="Banyan" style="swimlane;fontColor=#FF0080;startSize=23;" parent="3qYp3PzX7lrmJIjdqvdg-1" vertex="1">
          <mxGeometry x="370" y="120" width="460" height="330" as="geometry" />
        </mxCell>
        <mxCell id="3qYp3PzX7lrmJIjdqvdg-11" style="edgeStyle=orthogonalEdgeStyle;rounded=0;orthogonalLoop=1;jettySize=auto;html=1;entryX=0.5;entryY=0;entryDx=0;entryDy=0;" parent="3qYp3PzX7lrmJIjdqvdg-10" edge="1">
          <mxGeometry relative="1" as="geometry">
            <mxPoint x="140" y="70" as="sourcePoint" />
          </mxGeometry>
        </mxCell>
        <mxCell id="3qYp3PzX7lrmJIjdqvdg-16" style="edgeStyle=orthogonalEdgeStyle;rounded=0;orthogonalLoop=1;jettySize=auto;html=1;entryX=0.856;entryY=0;entryDx=0;entryDy=0;entryPerimeter=0;" parent="3qYp3PzX7lrmJIjdqvdg-1" edge="1">
          <mxGeometry relative="1" as="geometry">
            <Array as="points">
              <mxPoint x="640" y="255" />
              <mxPoint x="640" y="260" />
              <mxPoint x="714" y="260" />
            </Array>
            <mxPoint x="620" y="255" as="sourcePoint" />
          </mxGeometry>
        </mxCell>
        <mxCell id="3qYp3PzX7lrmJIjdqvdg-17" style="edgeStyle=orthogonalEdgeStyle;rounded=0;orthogonalLoop=1;jettySize=auto;html=1;entryX=0.461;entryY=1.1;entryDx=0;entryDy=0;entryPerimeter=0;" parent="3qYp3PzX7lrmJIjdqvdg-1" target="3qYp3PzX7lrmJIjdqvdg-7" edge="1">
          <mxGeometry relative="1" as="geometry">
            <mxPoint x="400" y="335" as="sourcePoint" />
          </mxGeometry>
        </mxCell>
        <mxCell id="3qYp3PzX7lrmJIjdqvdg-52" value="{&lt;br&gt;&lt;span&gt; &lt;/span&gt;&quot;Quotes&quot;:[&lt;br&gt;&lt;blockquote style=&quot;margin: 0 0 0 40px ; border: none ; padding: 0px&quot;&gt;&lt;span&gt;&lt;span style=&quot;white-space: pre&quot;&gt; &lt;/span&gt;{&lt;span&gt; &lt;/span&gt;&lt;/span&gt;&lt;/blockquote&gt;&lt;blockquote style=&quot;margin: 0 0 0 40px ; border: none ; padding: 0px&quot;&gt;&lt;span&gt;&lt;br/&gt;&lt;/span&gt;&lt;span&gt; &lt;/span&gt;&lt;span&gt; &lt;/span&gt;&lt;span&gt; &lt;/span&gt;&lt;span style=&quot;white-space: pre&quot;&gt; &lt;/span&gt;&lt;span style=&quot;white-space: pre&quot;&gt; &lt;/span&gt;&quot;LoadID&quot;: &quot;SameAsPassed&quot;,&lt;br&gt;&lt;span&gt;&lt;span style=&quot;white-space: pre&quot;&gt; &lt;/span&gt;&lt;span style=&quot;white-space: pre&quot;&gt; &lt;/span&gt;&quot;&lt;/span&gt;QuoteID&quot;: &quot;DifferentForEachQuote&quot;&lt;/blockquote&gt;&lt;span&gt; &lt;/span&gt;&lt;span&gt; &lt;/span&gt;&lt;span style=&quot;white-space: pre&quot;&gt; &lt;/span&gt;&lt;span style=&quot;white-space: pre&quot;&gt; &amp;nbsp;&lt;/span&gt;&amp;nbsp; &amp;nbsp; },&lt;br&gt;&lt;span&gt; &lt;/span&gt;&lt;span&gt; &lt;/span&gt;&lt;span style=&quot;white-space: pre&quot;&gt;&lt;span style=&quot;white-space: pre&quot;&gt; &lt;/span&gt;&lt;span style=&quot;white-space: pre&quot;&gt; &lt;/span&gt;    { &lt;br/&gt;&lt;/span&gt;&lt;span style=&quot;white-space: pre&quot;&gt; &lt;/span&gt;&lt;span style=&quot;white-space: pre&quot;&gt; &lt;/span&gt;&lt;span style=&quot;white-space: pre&quot;&gt; &lt;/span&gt;&quot;LoadID&quot;: &quot;SameAsPassed&quot;,&lt;br&gt;&lt;span style=&quot;white-space: pre&quot;&gt; &lt;/span&gt;&lt;span style=&quot;white-space: pre&quot;&gt; &lt;span&gt; &lt;/span&gt;&quot;&lt;/span&gt;QuoteID&quot;: &quot;DifferentForEachQuote&quot;&lt;br&gt;&lt;span style=&quot;white-space: pre&quot;&gt; &lt;/span&gt;&lt;span style=&quot;white-space: pre&quot;&gt; &lt;/span&gt;&amp;nbsp; &amp;nbsp; },&lt;br&gt;&lt;span&gt; &lt;/span&gt;&lt;span style=&quot;white-space: pre&quot;&gt; &lt;/span&gt;&lt;span style=&quot;white-space: pre&quot;&gt; &lt;/span&gt;]&lt;br&gt;}" style="rounded=0;whiteSpace=wrap;html=1;fillColor=#f8cecc;strokeColor=#b85450;align=left;" parent="3qYp3PzX7lrmJIjdqvdg-1" vertex="1">
          <mxGeometry x="400" y="160" width="400" height="240" as="geometry" />
        </mxCell>
        <mxCell id="3qYp3PzX7lrmJIjdqvdg-53" value="2. A set of Quotes" style="text;html=1;strokeColor=none;fillColor=none;align=center;verticalAlign=middle;whiteSpace=wrap;rounded=0;fontColor=#FF0080;" parent="3qYp3PzX7lrmJIjdqvdg-1" vertex="1">
          <mxGeometry x="120" y="310" width="130" height="20" as="geometry" />
        </mxCell>
        <mxCell id="3qYp3PzX7lrmJIjdqvdg-57" value="Just Pass the LoadID created by Banyan for shipment." style="text;strokeColor=#6c8ebf;fillColor=#dae8fc;align=left;verticalAlign=top;spacingLeft=4;spacingRight=4;overflow=hidden;rotatable=0;points=[[0,0.5],[1,0.5]];portConstraint=eastwest;" parent="3qYp3PzX7lrmJIjdqvdg-1" vertex="1">
          <mxGeometry y="52" width="520" height="26" as="geometry" />
        </mxCell>
      </root>
    </mxGraphModel>
  </diagram>
  <diagram name="03. /services/api/rest/ImportForQuote_Sync" id="VW07h3cwKVJhl0lstl71">
    <mxGraphModel dx="1022" dy="444" grid="1" gridSize="10" guides="1" tooltips="1" connect="1" arrows="1" fold="1" page="1" pageScale="1" pageWidth="1100" pageHeight="850" math="0" shadow="0">
      <root>
        <mxCell id="U-g3pxEUER873NjEjKzG-0" />
        <mxCell id="U-g3pxEUER873NjEjKzG-1" parent="U-g3pxEUER873NjEjKzG-0" />
        <mxCell id="U-g3pxEUER873NjEjKzG-2" value="POSTÂ {{host}}/services/api/rest/ImportForQuote" style="swimlane;fontStyle=1;childLayout=stackLayout;horizontal=1;startSize=26;horizontalStack=0;resizeParent=1;resizeParentMax=0;resizeLast=0;collapsible=1;marginBottom=0;fontColor=#FF0080;" parent="U-g3pxEUER873NjEjKzG-1" vertex="1">
          <mxGeometry y="40" width="520" height="118" as="geometry" />
        </mxCell>
        <mxCell id="U-g3pxEUER873NjEjKzG-3" value="Import a shipment in the Banyan system." style="text;strokeColor=#6c8ebf;fillColor=#dae8fc;align=left;verticalAlign=top;spacingLeft=4;spacingRight=4;overflow=hidden;rotatable=0;points=[[0,0.5],[1,0.5]];portConstraint=eastwest;" parent="U-g3pxEUER873NjEjKzG-2" vertex="1">
          <mxGeometry y="26" width="520" height="26" as="geometry" />
        </mxCell>
        <mxCell id="U-g3pxEUER873NjEjKzG-4" value="Initiate the rating process and will return a response immediately" style="text;strokeColor=#82b366;fillColor=#d5e8d4;align=left;verticalAlign=top;spacingLeft=4;spacingRight=4;overflow=hidden;rotatable=0;points=[[0,0.5],[1,0.5]];portConstraint=eastwest;" parent="U-g3pxEUER873NjEjKzG-2" vertex="1">
          <mxGeometry y="52" width="520" height="26" as="geometry" />
        </mxCell>
        <mxCell id="U-g3pxEUER873NjEjKzG-5" value="Following this request would be a loop of calling GetQuotes to return the quotes on the created shipment" style="text;strokeColor=#9673a6;fillColor=#e1d5e7;align=left;verticalAlign=top;spacingLeft=4;spacingRight=4;overflow=hidden;rotatable=0;points=[[0,0.5],[1,0.5]];portConstraint=eastwest;whiteSpace=wrap;" parent="U-g3pxEUER873NjEjKzG-2" vertex="1">
          <mxGeometry y="78" width="520" height="40" as="geometry" />
        </mxCell>
        <mxCell id="U-g3pxEUER873NjEjKzG-6" style="edgeStyle=orthogonalEdgeStyle;rounded=0;orthogonalLoop=1;jettySize=auto;html=1;" parent="U-g3pxEUER873NjEjKzG-1" source="U-g3pxEUER873NjEjKzG-7" target="U-g3pxEUER873NjEjKzG-12" edge="1">
          <mxGeometry relative="1" as="geometry">
            <Array as="points">
              <mxPoint x="320" y="230" />
              <mxPoint x="320" y="245" />
            </Array>
          </mxGeometry>
        </mxCell>
        <mxCell id="U-g3pxEUER873NjEjKzG-7" value="Shipment" style="rounded=0;whiteSpace=wrap;html=1;fillColor=#d5e8d4;strokeColor=#82b366;" parent="U-g3pxEUER873NjEjKzG-1" vertex="1">
          <mxGeometry x="10" y="200" width="230" height="60" as="geometry" />
        </mxCell>
        <mxCell id="U-g3pxEUER873NjEjKzG-8" value="Turvo" style="text;html=1;align=center;verticalAlign=middle;resizable=0;points=[];autosize=1;strokeColor=none;fontColor=#FF0080;" parent="U-g3pxEUER873NjEjKzG-1" vertex="1">
          <mxGeometry x="100" y="180" width="50" height="20" as="geometry" />
        </mxCell>
        <mxCell id="U-g3pxEUER873NjEjKzG-9" value="1. Importing Shipment" style="text;html=1;strokeColor=none;fillColor=none;align=center;verticalAlign=middle;whiteSpace=wrap;rounded=0;fontColor=#FF0080;" parent="U-g3pxEUER873NjEjKzG-1" vertex="1">
          <mxGeometry x="240" y="210" width="130" height="20" as="geometry" />
        </mxCell>
        <mxCell id="U-g3pxEUER873NjEjKzG-10" value="Banyan" style="swimlane;fontColor=#FF0080;startSize=23;" parent="U-g3pxEUER873NjEjKzG-1" vertex="1">
          <mxGeometry x="370" y="200" width="470" height="440" as="geometry" />
        </mxCell>
        <mxCell id="LS-Lc405rFHRBbfT6CRn-0" style="edgeStyle=orthogonalEdgeStyle;rounded=0;orthogonalLoop=1;jettySize=auto;html=1;entryX=0.5;entryY=0;entryDx=0;entryDy=0;" parent="U-g3pxEUER873NjEjKzG-10" source="U-g3pxEUER873NjEjKzG-12" target="U-g3pxEUER873NjEjKzG-15" edge="1">
          <mxGeometry relative="1" as="geometry" />
        </mxCell>
        <mxCell id="U-g3pxEUER873NjEjKzG-12" value="Importing Shipment" style="rounded=0;whiteSpace=wrap;html=1;fillColor=#dae8fc;strokeColor=#6c8ebf;" parent="U-g3pxEUER873NjEjKzG-10" vertex="1">
          <mxGeometry x="30" y="40" width="240" height="40" as="geometry" />
        </mxCell>
        <mxCell id="LS-Lc405rFHRBbfT6CRn-1" style="edgeStyle=orthogonalEdgeStyle;rounded=0;orthogonalLoop=1;jettySize=auto;html=1;" parent="U-g3pxEUER873NjEjKzG-10" source="U-g3pxEUER873NjEjKzG-15" edge="1">
          <mxGeometry relative="1" as="geometry">
            <mxPoint x="150" y="190" as="targetPoint" />
          </mxGeometry>
        </mxCell>
        <mxCell id="U-g3pxEUER873NjEjKzG-15" value="Rate Process starts&amp;nbsp;" style="rounded=0;whiteSpace=wrap;html=1;fillColor=#dae8fc;strokeColor=#6c8ebf;" parent="U-g3pxEUER873NjEjKzG-10" vertex="1">
          <mxGeometry x="30" y="120" width="240" height="40" as="geometry" />
        </mxCell>
        <mxCell id="U-g3pxEUER873NjEjKzG-17" style="edgeStyle=orthogonalEdgeStyle;rounded=0;orthogonalLoop=1;jettySize=auto;html=1;entryX=0.461;entryY=1.1;entryDx=0;entryDy=0;entryPerimeter=0;" parent="U-g3pxEUER873NjEjKzG-1" target="U-g3pxEUER873NjEjKzG-7" edge="1">
          <mxGeometry relative="1" as="geometry">
            <mxPoint x="400" y="417.5" as="sourcePoint" />
          </mxGeometry>
        </mxCell>
        <mxCell id="U-g3pxEUER873NjEjKzG-18" value="2. A set of Quotes" style="text;html=1;strokeColor=none;fillColor=none;align=center;verticalAlign=middle;whiteSpace=wrap;rounded=0;fontColor=#FF0080;" parent="U-g3pxEUER873NjEjKzG-1" vertex="1">
          <mxGeometry x="190" y="380" width="120" height="20" as="geometry" />
        </mxCell>
        <mxCell id="rtPEkSFmFEGh6jgvNy1m-0" value="{&lt;br&gt;&lt;span style=&quot;white-space: pre&quot;&gt; &lt;/span&gt;&amp;nbsp; &amp;nbsp; ...,&lt;br&gt;&lt;span&gt; &lt;/span&gt;&lt;blockquote style=&quot;margin: 0 0 0 40px ; border: none ; padding: 0px&quot;&gt;&quot;Quotes&quot;:[&lt;blockquote style=&quot;margin: 0 0 0 40px ; border: none ; padding: 0px&quot;&gt;&lt;span&gt;&lt;span style=&quot;white-space: pre&quot;&gt; &lt;/span&gt;{&lt;/span&gt;&lt;/blockquote&gt;&lt;blockquote style=&quot;margin: 0 0 0 40px ; border: none ; padding: 0px&quot;&gt;&lt;span&gt;&lt;br&gt;&lt;/span&gt;&lt;/blockquote&gt;&lt;blockquote style=&quot;margin: 0 0 0 40px ; border: none ; padding: 0px&quot;&gt;&lt;span style=&quot;white-space: pre&quot;&gt; &lt;/span&gt;&lt;span style=&quot;white-space: pre&quot;&gt; &lt;/span&gt;&quot;LoadID&quot;: &quot;SameAsPassed&quot;,&lt;/blockquote&gt;&lt;blockquote style=&quot;margin: 0 0 0 40px ; border: none ; padding: 0px&quot;&gt;&lt;span&gt;&lt;span style=&quot;white-space: pre&quot;&gt; &lt;/span&gt;&lt;span style=&quot;white-space: pre&quot;&gt; &lt;/span&gt;&quot;&lt;/span&gt;QuoteID&quot;: &quot;DifferentForEachQuote&quot;&lt;/blockquote&gt;&lt;span style=&quot;white-space: pre&quot;&gt; &lt;/span&gt;&lt;span style=&quot;white-space: pre&quot;&gt; &amp;nbsp;&lt;/span&gt;&amp;nbsp; &amp;nbsp; },&lt;br&gt;&lt;span style=&quot;white-space: pre&quot;&gt;&lt;span style=&quot;white-space: pre&quot;&gt; &lt;/span&gt;&lt;span style=&quot;white-space: pre&quot;&gt; &lt;/span&gt;    { &lt;br&gt;&lt;/span&gt;&lt;span style=&quot;white-space: pre&quot;&gt; &lt;/span&gt;&lt;span style=&quot;white-space: pre&quot;&gt; &lt;/span&gt;&lt;span style=&quot;white-space: pre&quot;&gt; &lt;/span&gt;&quot;LoadID&quot;: &quot;SameAsPassed&quot;,&lt;br&gt;&lt;span style=&quot;white-space: pre&quot;&gt; &lt;/span&gt;&lt;span style=&quot;white-space: pre&quot;&gt; &lt;span&gt; &lt;/span&gt;&quot;&lt;/span&gt;QuoteID&quot;: &quot;DifferentForEachQuote&quot;&lt;br&gt;&lt;span style=&quot;white-space: pre&quot;&gt; &lt;/span&gt;&lt;span style=&quot;white-space: pre&quot;&gt; &lt;/span&gt;&amp;nbsp; &amp;nbsp; },&lt;br&gt;&lt;span style=&quot;white-space: pre&quot;&gt; &lt;/span&gt;&lt;span style=&quot;white-space: pre&quot;&gt; &lt;/span&gt;]&lt;/blockquote&gt;}" style="rounded=0;whiteSpace=wrap;html=1;fillColor=#f8cecc;strokeColor=#b85450;align=left;" parent="U-g3pxEUER873NjEjKzG-1" vertex="1">
          <mxGeometry x="400" y="390" width="400" height="240" as="geometry" />
        </mxCell>
      </root>
    </mxGraphModel>
  </diagram>
  <diagram id="dOh_V104mQJpr9CTCbcv" name="Page-4">
    <mxGraphModel dx="1022" dy="478" grid="1" gridSize="10" guides="1" tooltips="1" connect="1" arrows="1" fold="1" page="1" pageScale="1" pageWidth="1100" pageHeight="850" math="0" shadow="0">
      <root>
        <mxCell id="rXdjp0I8evFBmd4U9B_b-0" />
        <mxCell id="rXdjp0I8evFBmd4U9B_b-1" parent="rXdjp0I8evFBmd4U9B_b-0" />
        <mxCell id="rXdjp0I8evFBmd4U9B_b-2" value="" style="shape=table;startSize=0;container=1;collapsible=0;childLayout=tableLayout;" vertex="1" parent="rXdjp0I8evFBmd4U9B_b-1">
          <mxGeometry x="25" y="270" width="520" height="40" as="geometry" />
        </mxCell>
        <mxCell id="rXdjp0I8evFBmd4U9B_b-3" value="" style="shape=partialRectangle;collapsible=0;dropTarget=0;pointerEvents=0;fillColor=none;top=0;left=0;bottom=0;right=0;points=[[0,0.5],[1,0.5]];portConstraint=eastwest;" vertex="1" parent="rXdjp0I8evFBmd4U9B_b-2">
          <mxGeometry width="520" height="40" as="geometry" />
        </mxCell>
        <mxCell id="rXdjp0I8evFBmd4U9B_b-4" value="&lt;b&gt;P44Credentials&lt;/b&gt;" style="shape=partialRectangle;html=1;whiteSpace=wrap;connectable=0;overflow=hidden;fillColor=#ffe6cc;top=0;left=0;bottom=0;right=0;strokeColor=#d79b00;" vertex="1" parent="rXdjp0I8evFBmd4U9B_b-3">
          <mxGeometry width="260" height="40" as="geometry" />
        </mxCell>
        <mxCell id="rXdjp0I8evFBmd4U9B_b-5" value="&lt;b&gt;AuthenticationData&lt;/b&gt;" style="shape=partialRectangle;html=1;whiteSpace=wrap;connectable=0;overflow=hidden;fillColor=#f8cecc;top=0;left=0;bottom=0;right=0;strokeColor=#b85450;" vertex="1" parent="rXdjp0I8evFBmd4U9B_b-3">
          <mxGeometry x="260" width="260" height="40" as="geometry" />
        </mxCell>
        <mxCell id="rXdjp0I8evFBmd4U9B_b-6" value="" style="shape=table;startSize=0;container=1;collapsible=0;childLayout=tableLayout;" vertex="1" parent="rXdjp0I8evFBmd4U9B_b-1">
          <mxGeometry x="25" y="350" width="520" height="40" as="geometry" />
        </mxCell>
        <mxCell id="rXdjp0I8evFBmd4U9B_b-7" value="" style="shape=partialRectangle;collapsible=0;dropTarget=0;pointerEvents=0;fillColor=none;top=0;left=0;bottom=0;right=0;points=[[0,0.5],[1,0.5]];portConstraint=eastwest;" vertex="1" parent="rXdjp0I8evFBmd4U9B_b-6">
          <mxGeometry width="520" height="40" as="geometry" />
        </mxCell>
        <mxCell id="rXdjp0I8evFBmd4U9B_b-8" value="" style="shape=partialRectangle;html=1;whiteSpace=wrap;connectable=0;overflow=hidden;fillColor=#ffe6cc;top=0;left=0;bottom=0;right=0;strokeColor=#d79b00;" vertex="1" parent="rXdjp0I8evFBmd4U9B_b-7">
          <mxGeometry width="260" height="40" as="geometry" />
        </mxCell>
        <mxCell id="rXdjp0I8evFBmd4U9B_b-9" value="&lt;b&gt;Loadinfo&lt;/b&gt;" style="shape=partialRectangle;html=1;whiteSpace=wrap;connectable=0;overflow=hidden;fillColor=#f8cecc;top=0;left=0;bottom=0;right=0;strokeColor=#b85450;" vertex="1" parent="rXdjp0I8evFBmd4U9B_b-7">
          <mxGeometry x="260" width="260" height="40" as="geometry" />
        </mxCell>
        <mxCell id="rXdjp0I8evFBmd4U9B_b-10" value="" style="shape=table;startSize=0;container=1;collapsible=0;childLayout=tableLayout;" vertex="1" parent="rXdjp0I8evFBmd4U9B_b-1">
          <mxGeometry x="25" y="430" width="520" height="120" as="geometry" />
        </mxCell>
        <mxCell id="rXdjp0I8evFBmd4U9B_b-11" value="" style="shape=partialRectangle;collapsible=0;dropTarget=0;pointerEvents=0;fillColor=none;top=0;left=0;bottom=0;right=0;points=[[0,0.5],[1,0.5]];portConstraint=eastwest;" vertex="1" parent="rXdjp0I8evFBmd4U9B_b-10">
          <mxGeometry width="520" height="40" as="geometry" />
        </mxCell>
        <mxCell id="rXdjp0I8evFBmd4U9B_b-12" value="" style="shape=partialRectangle;html=1;whiteSpace=wrap;connectable=0;overflow=hidden;fillColor=#ffe6cc;top=0;left=0;bottom=0;right=0;strokeColor=#d79b00;" vertex="1" parent="rXdjp0I8evFBmd4U9B_b-11">
          <mxGeometry width="260" height="40" as="geometry" />
        </mxCell>
        <mxCell id="rXdjp0I8evFBmd4U9B_b-13" value="&lt;b&gt;BillTo&lt;/b&gt;" style="shape=partialRectangle;html=1;whiteSpace=wrap;connectable=0;overflow=hidden;fillColor=#f8cecc;top=0;left=0;bottom=0;right=0;strokeColor=#b85450;" vertex="1" parent="rXdjp0I8evFBmd4U9B_b-11">
          <mxGeometry x="260" width="260" height="40" as="geometry" />
        </mxCell>
        <mxCell id="rXdjp0I8evFBmd4U9B_b-14" style="shape=partialRectangle;collapsible=0;dropTarget=0;pointerEvents=0;fillColor=none;top=0;left=0;bottom=0;right=0;points=[[0,0.5],[1,0.5]];portConstraint=eastwest;" vertex="1" parent="rXdjp0I8evFBmd4U9B_b-10">
          <mxGeometry y="40" width="520" height="40" as="geometry" />
        </mxCell>
        <mxCell id="rXdjp0I8evFBmd4U9B_b-15" value="&lt;b&gt;LTLAddress&lt;/b&gt;" style="shape=partialRectangle;html=1;whiteSpace=wrap;connectable=0;overflow=hidden;fillColor=#ffe6cc;top=0;left=0;bottom=0;right=0;strokeColor=#d79b00;" vertex="1" parent="rXdjp0I8evFBmd4U9B_b-14">
          <mxGeometry width="260" height="40" as="geometry" />
        </mxCell>
        <mxCell id="rXdjp0I8evFBmd4U9B_b-16" value="&lt;b&gt;AddressInfo&lt;/b&gt;" style="shape=partialRectangle;html=1;whiteSpace=wrap;connectable=0;overflow=hidden;fillColor=#f8cecc;top=0;left=0;bottom=0;right=0;strokeColor=#b85450;" vertex="1" parent="rXdjp0I8evFBmd4U9B_b-14">
          <mxGeometry x="260" width="260" height="40" as="geometry" />
        </mxCell>
        <mxCell id="rXdjp0I8evFBmd4U9B_b-17" style="shape=partialRectangle;collapsible=0;dropTarget=0;pointerEvents=0;fillColor=none;top=0;left=0;bottom=0;right=0;points=[[0,0.5],[1,0.5]];portConstraint=eastwest;" vertex="1" parent="rXdjp0I8evFBmd4U9B_b-10">
          <mxGeometry y="80" width="520" height="40" as="geometry" />
        </mxCell>
        <mxCell id="rXdjp0I8evFBmd4U9B_b-18" value="&lt;b&gt;LTLContact&lt;/b&gt;" style="shape=partialRectangle;html=1;whiteSpace=wrap;connectable=0;overflow=hidden;fillColor=#ffe6cc;top=0;left=0;bottom=0;right=0;strokeColor=#d79b00;" vertex="1" parent="rXdjp0I8evFBmd4U9B_b-17">
          <mxGeometry width="260" height="40" as="geometry" />
        </mxCell>
        <mxCell id="rXdjp0I8evFBmd4U9B_b-19" value="&lt;b&gt;ContactInfo&lt;/b&gt;" style="shape=partialRectangle;html=1;whiteSpace=wrap;connectable=0;overflow=hidden;fillColor=#f8cecc;top=0;left=0;bottom=0;right=0;strokeColor=#b85450;" vertex="1" parent="rXdjp0I8evFBmd4U9B_b-17">
          <mxGeometry x="260" width="260" height="40" as="geometry" />
        </mxCell>
        <mxCell id="rXdjp0I8evFBmd4U9B_b-20" value="" style="shape=table;startSize=0;container=1;collapsible=0;childLayout=tableLayout;" vertex="1" parent="rXdjp0I8evFBmd4U9B_b-1">
          <mxGeometry x="25" y="590" width="520" height="40" as="geometry" />
        </mxCell>
        <mxCell id="rXdjp0I8evFBmd4U9B_b-21" value="" style="shape=partialRectangle;collapsible=0;dropTarget=0;pointerEvents=0;fillColor=none;top=0;left=0;bottom=0;right=0;points=[[0,0.5],[1,0.5]];portConstraint=eastwest;" vertex="1" parent="rXdjp0I8evFBmd4U9B_b-20">
          <mxGeometry width="520" height="40" as="geometry" />
        </mxCell>
        <mxCell id="rXdjp0I8evFBmd4U9B_b-22" value="" style="shape=partialRectangle;html=1;whiteSpace=wrap;connectable=0;overflow=hidden;fillColor=#ffe6cc;top=0;left=0;bottom=0;right=0;strokeColor=#d79b00;" vertex="1" parent="rXdjp0I8evFBmd4U9B_b-21">
          <mxGeometry width="260" height="40" as="geometry" />
        </mxCell>
        <mxCell id="rXdjp0I8evFBmd4U9B_b-23" value="&lt;b&gt;RateServices&lt;/b&gt;" style="shape=partialRectangle;html=1;whiteSpace=wrap;connectable=0;overflow=hidden;fillColor=#f8cecc;top=0;left=0;bottom=0;right=0;strokeColor=#b85450;" vertex="1" parent="rXdjp0I8evFBmd4U9B_b-21">
          <mxGeometry x="260" width="260" height="40" as="geometry" />
        </mxCell>
        <mxCell id="rXdjp0I8evFBmd4U9B_b-24" value="" style="shape=table;startSize=0;container=1;collapsible=0;childLayout=tableLayout;" vertex="1" parent="rXdjp0I8evFBmd4U9B_b-1">
          <mxGeometry x="555" y="430" width="520" height="120" as="geometry" />
        </mxCell>
        <mxCell id="rXdjp0I8evFBmd4U9B_b-25" value="" style="shape=partialRectangle;collapsible=0;dropTarget=0;pointerEvents=0;fillColor=none;top=0;left=0;bottom=0;right=0;points=[[0,0.5],[1,0.5]];portConstraint=eastwest;" vertex="1" parent="rXdjp0I8evFBmd4U9B_b-24">
          <mxGeometry width="520" height="40" as="geometry" />
        </mxCell>
        <mxCell id="rXdjp0I8evFBmd4U9B_b-26" value="" style="shape=partialRectangle;html=1;whiteSpace=wrap;connectable=0;overflow=hidden;fillColor=#ffe6cc;top=0;left=0;bottom=0;right=0;strokeColor=#d79b00;" vertex="1" parent="rXdjp0I8evFBmd4U9B_b-25">
          <mxGeometry width="260" height="40" as="geometry" />
        </mxCell>
        <mxCell id="rXdjp0I8evFBmd4U9B_b-27" value="&lt;b&gt;Shipper&lt;/b&gt;" style="shape=partialRectangle;html=1;whiteSpace=wrap;connectable=0;overflow=hidden;fillColor=#f8cecc;top=0;left=0;bottom=0;right=0;strokeColor=#b85450;" vertex="1" parent="rXdjp0I8evFBmd4U9B_b-25">
          <mxGeometry x="260" width="260" height="40" as="geometry" />
        </mxCell>
        <mxCell id="rXdjp0I8evFBmd4U9B_b-28" style="shape=partialRectangle;collapsible=0;dropTarget=0;pointerEvents=0;fillColor=none;top=0;left=0;bottom=0;right=0;points=[[0,0.5],[1,0.5]];portConstraint=eastwest;" vertex="1" parent="rXdjp0I8evFBmd4U9B_b-24">
          <mxGeometry y="40" width="520" height="40" as="geometry" />
        </mxCell>
        <mxCell id="rXdjp0I8evFBmd4U9B_b-29" value="&lt;b&gt;LTLAddress&lt;/b&gt;" style="shape=partialRectangle;html=1;whiteSpace=wrap;connectable=0;overflow=hidden;fillColor=#ffe6cc;top=0;left=0;bottom=0;right=0;strokeColor=#d79b00;" vertex="1" parent="rXdjp0I8evFBmd4U9B_b-28">
          <mxGeometry width="260" height="40" as="geometry" />
        </mxCell>
        <mxCell id="rXdjp0I8evFBmd4U9B_b-30" value="&lt;b&gt;AddressInfo&lt;/b&gt;" style="shape=partialRectangle;html=1;whiteSpace=wrap;connectable=0;overflow=hidden;fillColor=#f8cecc;top=0;left=0;bottom=0;right=0;strokeColor=#b85450;" vertex="1" parent="rXdjp0I8evFBmd4U9B_b-28">
          <mxGeometry x="260" width="260" height="40" as="geometry" />
        </mxCell>
        <mxCell id="rXdjp0I8evFBmd4U9B_b-31" style="shape=partialRectangle;collapsible=0;dropTarget=0;pointerEvents=0;fillColor=none;top=0;left=0;bottom=0;right=0;points=[[0,0.5],[1,0.5]];portConstraint=eastwest;" vertex="1" parent="rXdjp0I8evFBmd4U9B_b-24">
          <mxGeometry y="80" width="520" height="40" as="geometry" />
        </mxCell>
        <mxCell id="rXdjp0I8evFBmd4U9B_b-32" value="&lt;b&gt;LTLContact&lt;/b&gt;" style="shape=partialRectangle;html=1;whiteSpace=wrap;connectable=0;overflow=hidden;fillColor=#ffe6cc;top=0;left=0;bottom=0;right=0;strokeColor=#d79b00;" vertex="1" parent="rXdjp0I8evFBmd4U9B_b-31">
          <mxGeometry width="260" height="40" as="geometry" />
        </mxCell>
        <mxCell id="rXdjp0I8evFBmd4U9B_b-33" value="&lt;b&gt;ContactInfo&lt;/b&gt;" style="shape=partialRectangle;html=1;whiteSpace=wrap;connectable=0;overflow=hidden;fillColor=#f8cecc;top=0;left=0;bottom=0;right=0;strokeColor=#b85450;" vertex="1" parent="rXdjp0I8evFBmd4U9B_b-31">
          <mxGeometry x="260" width="260" height="40" as="geometry" />
        </mxCell>
      </root>
    </mxGraphModel>
  </diagram>
</mxfile>
